# xmcd
#
# Track frame offsets:
#       150
#       21471
#       45801
#       63822
#       80462
#       102114
#       127402
#       139689
#       158413
#       184872
#       204948
#       226244
#       244186
#       257395
#
# Disc length: 3748 seconds
#
# Revision: 0
# Processed by: cddbd v1.5.2PL0 Copyright (c) Steve Scherf et al.
# Submitted via: WaveLab 4.01
#
DISCID=ac0ea20e
DTITLE=Piet Jan Blauw and Cheko Mosqueira - Movimiento Del Sexto Sol
DYEAR=2010
DGENRE=World
TTITLE0=La onda de la serpiente
TTITLE1=DreamSpace
TTITLE2=Lagrimas azules
TTITLE3=Nahual
TTITLE4=Breating forest
TTITLE5=Jumping bugs
TTITLE6=El vuelo del aguila 
TTITLE7=Azteca Trance
TTITLE8=Raices de la vida
TTITLE9=El sexto sol
TTITLE10=La cueva magica
TTITLE11=Nezahualcoyotl
TTITLE12=Mexica
TTITLE13=Tribute to Jorge Reyes
EXTD=
EXTT0=
EXTT1=
EXTT2=
EXTT3=
EXTT4=
EXTT5=
EXTT6=
EXTT7=
EXTT8=
EXTT9=
EXTT10=
EXTT11=
EXTT12=
EXTT13=
PLAYORDER=
